<svg width="135" height="34" viewBox="0 0 135 34" fill="none" xmlns="http://www.w3.org/2000/svg">
<path d="M134.25 17C134.25 18.9211 132.687 20.9631 129.312 22.9728C125.985 24.9535 121.122 26.7634 115.047 28.2935C102.907 31.3509 86.0964 33.25 67.5 33.25C48.9036 33.25 32.093 31.3509 19.9535 28.2935C13.878 26.7634 9.01462 24.9535 5.6882 22.9728C2.31312 20.9631 0.75 18.9211 0.75 17C0.75 15.0789 2.31312 13.0369 5.6882 11.0272C9.01462 9.04654 13.878 7.2366 19.9535 5.70647C32.093 2.64911 48.9036 0.75 67.5 0.75C86.0964 0.75 102.907 2.64911 115.047 5.70647C121.122 7.2366 125.985 9.04654 129.312 11.0272C132.687 13.0369 134.25 15.0789 134.25 17Z" stroke="#FD8703" stroke-width="1.5"/>
</svg>
