<svg width="94" height="94" viewBox="0 0 94 94" fill="none" xmlns="http://www.w3.org/2000/svg">
<g filter="url(#filter0_d_19_1555)">
<circle cx="47" cy="47" r="27" fill="#49C858"/>
</g>
<g clip-path="url(#clip0_19_1555)">
<path d="M33.5762 46.3384C33.5755 48.6069 34.1729 50.822 35.3088 52.7744L33.4675 59.445L40.3475 57.6551C42.2504 58.683 44.3824 59.2216 46.549 59.2217H46.5547C53.7071 59.2217 59.5293 53.4468 59.5323 46.3486C59.5337 42.909 58.185 39.6747 55.7345 37.2413C53.2845 34.8082 50.026 33.4675 46.5542 33.4659C39.401 33.4659 33.5792 39.2406 33.5763 46.3384" fill="url(#paint0_linear_19_1555)"/>
<path d="M33.1129 46.3342C33.1121 48.6844 33.7309 50.9787 34.9073 53.0009L33 59.9107L40.1266 58.0566C42.0902 59.1189 44.3011 59.679 46.5507 59.6799H46.5565C53.9655 59.6799 59.9968 53.6972 60 46.3449C60.0013 42.7817 58.604 39.4311 56.066 36.9106C53.5277 34.3904 50.1527 33.0015 46.5565 33C39.1463 33 33.1159 38.9819 33.113 46.3342H33.1129ZM37.3569 52.6527L37.0908 52.2335C35.9722 50.4687 35.3818 48.4292 35.3826 46.3351C35.3851 40.224 40.3974 35.2521 46.5608 35.2521C49.5455 35.2533 52.3506 36.4079 54.4604 38.5026C56.5701 40.5975 57.7309 43.3822 57.7302 46.3441C57.7275 52.4552 52.7151 57.4277 46.5565 57.4277H46.5521C44.5468 57.4266 42.5801 56.8923 40.865 55.8825L40.4569 55.6423L36.2278 56.7425L37.3569 52.6525V52.6527Z" fill="url(#paint1_linear_19_1555)"/>
<path d="M43.1965 40.7597C42.9449 40.2047 42.68 40.1935 42.4407 40.1838C42.2448 40.1754 42.0207 40.176 41.7969 40.176C41.5729 40.176 41.2089 40.2597 40.9013 40.593C40.5933 40.9266 39.7255 41.7328 39.7255 43.3726C39.7255 45.0125 40.9292 46.5972 41.097 46.8198C41.2651 47.042 43.4208 50.5147 46.8351 51.8507C49.6726 52.961 50.25 52.7401 50.8659 52.6845C51.4818 52.629 52.8533 51.8784 53.1331 51.1002C53.4132 50.322 53.4132 49.6549 53.3292 49.5155C53.2452 49.3767 53.0212 49.2932 52.6853 49.1266C52.3493 48.9599 50.6979 48.1536 50.39 48.0424C50.082 47.9312 49.8581 47.8757 49.6341 48.2095C49.4101 48.5427 48.7668 49.2932 48.5708 49.5155C48.3749 49.7383 48.1788 49.7661 47.843 49.5993C47.5069 49.4321 46.4251 49.0806 45.1417 47.9452C44.1431 47.0618 43.4689 45.9708 43.273 45.637C43.077 45.3038 43.252 45.1232 43.4204 44.9571C43.5713 44.8078 43.7564 44.5679 43.9246 44.3734C44.092 44.1787 44.1479 44.0399 44.2599 43.8176C44.3721 43.5951 44.3159 43.4004 44.2321 43.2337C44.1479 43.067 43.4952 41.4188 43.1965 40.7598" fill="white"/>
</g>
<defs>
<filter id="filter0_d_19_1555" x="0" y="0" width="94" height="94" filterUnits="userSpaceOnUse" color-interpolation-filters="sRGB">
<feFlood flood-opacity="0" result="BackgroundImageFix"/>
<feColorMatrix in="SourceAlpha" type="matrix" values="0 0 0 0 0 0 0 0 0 0 0 0 0 0 0 0 0 0 127 0" result="hardAlpha"/>
<feOffset/>
<feGaussianBlur stdDeviation="10"/>
<feComposite in2="hardAlpha" operator="out"/>
<feColorMatrix type="matrix" values="0 0 0 0 0.517647 0 0 0 0 0.517647 0 0 0 0 0.517647 0 0 0 0.2 0"/>
<feBlend mode="normal" in2="BackgroundImageFix" result="effect1_dropShadow_19_1555"/>
<feBlend mode="normal" in="SourceGraphic" in2="effect1_dropShadow_19_1555" result="shape"/>
</filter>
<linearGradient id="paint0_linear_19_1555" x1="46.4999" y1="59.445" x2="46.4999" y2="33.4659" gradientUnits="userSpaceOnUse">
<stop stop-color="#1FAF38"/>
<stop offset="1" stop-color="#60D669"/>
</linearGradient>
<linearGradient id="paint1_linear_19_1555" x1="46.5" y1="59.9107" x2="46.5" y2="33" gradientUnits="userSpaceOnUse">
<stop stop-color="#F9F9F9"/>
<stop offset="1" stop-color="white"/>
</linearGradient>
<clipPath id="clip0_19_1555">
<rect width="27" height="27" fill="white" transform="translate(33 33)"/>
</clipPath>
</defs>
</svg>
